<svg width="24" height="24" viewBox="0 0 24 24" fill="none" xmlns="http://www.w3.org/2000/svg">
  <defs>
    <style>
      @keyframes glassesFloat {
        0%, 100% { transform: translateY(0); }
        50% { transform: translateY(-2px); }
      }
      #glasses-group {
        animation: glassesFloat 3s ease-in-out infinite;
        transform-origin: center center;
      }
    </style>
  </defs>
  <g id="glasses-group">
    <path d="M6 15C7.65685 15 9 13.6569 9 12C9 10.3431 7.65685 9 6 9C4.34315 9 3 10.3431 3 12C3 13.6569 4.34315 15 6 15Z" stroke="#E53935" stroke-width="2" stroke-linecap="round" stroke-linejoin="round"/>
    <path d="M18 15C19.6569 15 21 13.6569 21 12C21 10.3431 19.6569 9 18 9C16.3431 9 15 10.3431 15 12C15 13.6569 16.3431 15 18 15Z" stroke="#E53935" stroke-width="2" stroke-linecap="round" stroke-linejoin="round"/>
    <path d="M9 12H15" stroke="#E53935" stroke-width="2" stroke-linecap="round" stroke-linejoin="round"/>
    <path d="M3 12V6H5" stroke="#E53935" stroke-width="2" stroke-linecap="round" stroke-linejoin="round"/>
    <path d="M21 12V6H19" stroke="#E53935" stroke-width="2" stroke-linecap="round" stroke-linejoin="round"/>
  </g>
</svg>
