<svg width="22" height="22" viewBox="0 0 22 22" fill="none" xmlns="http://www.w3.org/2000/svg">
  <defs>
    <style>
      @keyframes nod {
        0%, 100% { transform: rotate(0deg); }
        50% { transform: rotate(-5deg); }
      }
      @keyframes cuffPulse {
        0%, 100% { opacity: 1; }
        50% { opacity: 0.7; }
      }
      #hand {
        animation: nod 2s ease-in-out infinite;
        transform-origin: bottom left;
      }
      #cuff {
        animation: cuffPulse 2s ease-in-out infinite;
      }
    </style>
  </defs>
  <path id="hand" d="M6.85645 16.8213L9.69811 19.0213C10.0648 19.3879 10.8898 19.5713 11.4398 19.5713H14.9231C16.0231 19.5713 17.2148 18.7463 17.4898 17.6463L19.6898 10.9546C20.1481 9.67125 19.3231 8.57125 17.9481 8.57125H14.2814C13.7314 8.57125 13.2731 8.11292 13.3648 7.47125L13.8231 4.53792C14.0064 3.71292 13.4564 2.79625 12.6314 2.52125C11.8981 2.24625 10.9814 2.61292 10.6148 3.16292L6.85645 8.75458" stroke="#E53935" stroke-width="2.5625" stroke-miterlimit="10"/>
  <path id="cuff" d="M2.18164 16.8207V7.83737C2.18164 6.55404 2.73164 6.0957 4.01497 6.0957H4.93164C6.21497 6.0957 6.76497 6.55404 6.76497 7.83737V16.8207C6.76497 18.104 6.21497 18.5624 4.93164 18.5624H4.01497C2.73164 18.5624 2.18164 18.104 2.18164 16.8207Z" stroke="#E53935" stroke-width="2.5625" stroke-linecap="round" stroke-linejoin="round"/>
</svg>
