<svg width="24" height="24" viewBox="0 0 24 24" fill="none" xmlns="http://www.w3.org/2000/svg">
  <defs>
    <style>
      @keyframes usersFloat {
        0%, 100% { transform: translateY(0); }
        50% { transform: translateY(-2px); }
      }
      .user-path {
        animation: usersFloat 3s ease-in-out infinite;
        transform-origin: center center;
      }
      #user-2 { animation-delay: 0.5s; }
    </style>
  </defs>
  <path id="user-1" class="user-path" d="M17 21V19C17 17.9391 16.5786 16.9217 15.8284 16.1716C15.0783 15.4214 14.0609 15 13 15H5C3.93913 15 2.92172 15.4214 2.17157 16.1716C1.42143 16.9217 1 17.9391 1 19V21" stroke="#E53935" stroke-width="2" stroke-linecap="round" stroke-linejoin="round"/>
  <circle id="user-1-head" class="user-path" cx="9" cy="7" r="4" stroke="#E53935" stroke-width="2" stroke-linecap="round" stroke-linejoin="round"/>
  <path id="user-2" class="user-path" d="M23 21V19C22.9993 18.1137 22.7044 17.2521 22.1614 16.5523C21.6184 15.8525 20.8581 15.3516 20 15.13" stroke="#E53935" stroke-width="2" stroke-linecap="round" stroke-linejoin="round"/>
  <path id="user-2-head" class="user-path" d="M16 3.13C16.8604 3.35031 17.623 3.85071 18.1676 4.55232C18.7122 5.25393 19.0078 6.11683 19.0078 7.005C19.0078 7.89317 18.7122 8.75607 18.1676 9.45768C17.623 10.1593 16.8604 10.6597 16 10.88" stroke="#E53935" stroke-width="2" stroke-linecap="round" stroke-linejoin="round"/>
</svg>
