<svg width="22" height="22" viewBox="0 0 22 22" fill="none" xmlns="http://www.w3.org/2000/svg">
  <defs>
    <style>
      @keyframes shieldBounce {
        0%, 100% { transform: translateY(0) scale(1); }
        10% { transform: translateY(-1px) scale(1.02); }
        20% { transform: translateY(0) scale(1); }
      }
      @keyframes tickPulse {
        0%, 100% { opacity: 1; transform: scale(1); }
        50% { opacity: 0.8; transform: scale(1.05); }
      }
      #shield-group {
        animation: shieldBounce 3s ease-in-out infinite;
        transform-origin: center center;
      }
      #tick-path {
        animation: tickPulse 3s ease-in-out infinite;
        transform-origin: center center;
      }
    </style>
  </defs>
  <g id="shield-group">
    <path d="M11.0044 2.59863C11.2137 2.59863 11.3997 2.62129 11.5376 2.6543L11.6587 2.69043L16.6958 4.57715C16.9829 4.68796 17.2897 4.93493 17.5269 5.2793C17.7653 5.62573 17.885 6.00095 17.8823 6.30859V13.7412C17.8823 13.9442 17.8106 14.241 17.6558 14.5508C17.5019 14.8584 17.3082 15.0949 17.144 15.2197L12.1021 18.9873L12.1001 18.9893C11.8292 19.1931 11.4318 19.3193 10.9956 19.3193C10.5594 19.3193 10.162 19.1931 9.89111 18.9893L9.88916 18.9873L4.84717 15.2197L4.84326 15.2168C4.68469 15.0996 4.49163 14.866 4.33643 14.5547C4.18155 14.244 4.10893 13.9449 4.10889 13.7412V6.31641C4.10889 6.00589 4.23177 5.62899 4.47217 5.28223C4.71191 4.93643 5.02148 4.68815 5.31396 4.57715L10.3511 2.69043C10.4891 2.63958 10.7258 2.59867 11.0044 2.59863Z" fill="#E53935" stroke="#E53935" stroke-width="1.70833"/>
    <path id="tick-path" d="M14.8032 7.3252C14.2038 6.72595 13.2229 6.72584 12.6235 7.3252L9.771 10.1768L9.38623 9.79102L9.26904 9.68555C8.70547 9.22683 7.88626 9.22673 7.32275 9.68555L7.20654 9.79102C6.60857 10.389 6.60754 11.366 7.20264 11.9658V11.9668L8.66943 13.4521L8.67334 13.4561C8.97942 13.762 9.37484 13.9072 9.76318 13.9072C10.1515 13.9071 10.547 13.7621 10.853 13.4561L14.7935 9.51367C15.4039 8.91267 15.4009 7.92291 14.8032 7.3252Z" fill="#E53935"/>
  </g>
</svg>
