<svg width="22" height="22" viewBox="0 0 22 22" fill="none" xmlns="http://www.w3.org/2000/svg">
<mask id="path-1-inside-1_775_6458" fill="white">
<path d="M11.8063 19.1218H6.24217C2.98801 19.1218 1.83301 16.8392 1.83301 14.7126V7.28758C1.83301 4.11592 3.07051 2.87842 6.24217 2.87842H11.8063C14.978 2.87842 16.2155 4.11592 16.2155 7.28758V14.7126C16.2155 17.8842 14.978 19.1218 11.8063 19.1218ZM6.24217 4.27175C3.84967 4.27175 3.22634 4.89508 3.22634 7.28758V14.7126C3.22634 15.8401 3.62051 17.7284 6.24217 17.7284H11.8063C14.1988 17.7284 14.8222 17.1051 14.8222 14.7126V7.28758C14.8222 4.89508 14.1988 4.27175 11.8063 4.27175H6.24217Z"/>
</mask>
<path d="M11.8063 19.1218H6.24217C2.98801 19.1218 1.83301 16.8392 1.83301 14.7126V7.28758C1.83301 4.11592 3.07051 2.87842 6.24217 2.87842H11.8063C14.978 2.87842 16.2155 4.11592 16.2155 7.28758V14.7126C16.2155 17.8842 14.978 19.1218 11.8063 19.1218ZM6.24217 4.27175C3.84967 4.27175 3.22634 4.89508 3.22634 7.28758V14.7126C3.22634 15.8401 3.62051 17.7284 6.24217 17.7284H11.8063C14.1988 17.7284 14.8222 17.1051 14.8222 14.7126V7.28758C14.8222 4.89508 14.1988 4.27175 11.8063 4.27175H6.24217Z" fill="#E53935">
  <animate attributeName="opacity" values="1;0.8;1" dur="4s" repeatCount="indefinite" />
</path>
<path d="M16.2155 14.7126H14.5072H16.2155ZM11.8063 19.1218V17.4134H6.24217V19.1218V20.8301H11.8063V19.1218ZM6.24217 19.1218V17.4134C5.05365 17.4134 4.46007 17.0184 4.13084 16.6224C3.7572 16.1731 3.54134 15.4956 3.54134 14.7126H1.83301H0.124675C0.124675 16.0563 0.486315 17.5833 1.50372 18.8069C2.56553 20.0839 4.17653 20.8301 6.24217 20.8301V19.1218ZM1.83301 14.7126H3.54134V7.28758H1.83301H0.124675V14.7126H1.83301ZM1.83301 7.28758H3.54134C3.54134 5.85994 3.83182 5.32597 4.05619 5.1016C4.28056 4.87723 4.81453 4.58675 6.24217 4.58675V2.87842V1.17008C4.49815 1.17008 2.82754 1.49835 1.64024 2.68565C0.452944 3.87295 0.124675 5.54356 0.124675 7.28758H1.83301ZM6.24217 2.87842V4.58675H11.8063V2.87842V1.17008H6.24217V2.87842ZM11.8063 2.87842V4.58675C13.234 4.58675 13.768 4.87723 13.9923 5.1016C14.2167 5.32597 14.5072 5.85994 14.5072 7.28758H16.2155H17.9238C17.9238 5.54356 17.5956 3.87295 16.4083 2.68565C15.221 1.49835 13.5504 1.17008 11.8063 1.17008V2.87842ZM16.2155 7.28758H14.5072V14.7126H16.2155H17.9238V7.28758H16.2155ZM16.2155 14.7126H14.5072C14.5072 16.1402 14.2167 16.6742 13.9923 16.8986C13.768 17.1229 13.234 17.4134 11.8063 17.4134V19.1218V20.8301C13.5504 20.8301 15.221 20.5018 16.4083 19.3145C17.5956 18.1272 17.9238 16.4566 17.9238 14.7126H16.2155ZM6.24217 4.27175V2.56342C5.04363 2.56342 3.62267 2.68094 2.6291 3.67451C1.63553 4.66807 1.51801 6.08904 1.51801 7.28758H3.22634H4.93467C4.93467 6.74492 4.97204 6.41275 5.02128 6.20987C5.06588 6.02606 5.09889 6.03661 5.04504 6.09045C4.9912 6.1443 4.98065 6.11129 5.16446 6.06669C5.36734 6.01745 5.69951 5.98008 6.24217 5.98008V4.27175ZM3.22634 7.28758H1.51801V14.7126H3.22634H4.93467V7.28758H3.22634ZM3.22634 14.7126H1.51801C1.51801 15.4228 1.63268 16.589 2.34854 17.6186C3.14263 18.7606 4.46272 19.4368 6.24217 19.4368V17.7284V16.0201C5.79178 16.0201 5.53717 15.9395 5.40403 15.8756C5.27915 15.8156 5.20764 15.7456 5.15373 15.6681C5.01709 15.4715 4.93467 15.1299 4.93467 14.7126H3.22634ZM6.24217 17.7284V19.4368H11.8063V17.7284V16.0201H6.24217V17.7284ZM11.8063 17.7284V19.4368C13.0049 19.4368 14.4259 19.3192 15.4194 18.3257C16.413 17.3321 16.5305 15.9111 16.5305 14.7126H14.8222H13.1138C13.1138 15.2552 13.0765 15.5874 13.0272 15.7903C12.9826 15.9741 12.9496 15.9636 13.0035 15.9097C13.0573 15.8559 13.0679 15.8889 12.8841 15.9335C12.6812 15.9827 12.349 16.0201 11.8063 16.0201V17.7284ZM14.8222 14.7126H16.5305V7.28758H14.8222H13.1138V14.7126H14.8222ZM14.8222 7.28758H16.5305C16.5305 6.08904 16.413 4.66807 15.4194 3.67451C14.4259 2.68094 13.0049 2.56342 11.8063 2.56342V4.27175V5.98008C12.349 5.98008 12.6812 6.01745 12.8841 6.06669C13.0679 6.11129 13.0573 6.1443 13.0035 6.09045C12.9496 6.03661 12.9826 6.02606 13.0272 6.20987C13.0765 6.41275 13.1138 6.74492 13.1138 7.28758H14.8222ZM11.8063 4.27175V2.56342H6.24217V4.27175V5.98008H11.8063V4.27175ZM6.24217 4.27175" fill="#E53935" mask="url(#path-1-inside-1_775_6458)"/>
<path d="M19.0487 16.6008C18.6545 16.6008 18.1504 16.4725 17.5729 16.0691L15.1254 14.355C14.942 14.2266 14.832 14.0158 14.832 13.7866V8.21329C14.832 7.98412 14.942 7.77329 15.1254 7.64495L17.5729 5.93079C18.6637 5.16995 19.4612 5.38995 19.837 5.58245C20.2129 5.78412 20.8545 6.30662 20.8545 7.63579V14.355C20.8545 15.6841 20.2129 16.2158 19.837 16.4083C19.6629 16.5091 19.3879 16.6008 19.0487 16.6008ZM16.2162 13.42L18.3704 14.9233C18.7829 15.2075 19.0762 15.235 19.1954 15.1708C19.3237 15.1066 19.4612 14.85 19.4612 14.355V7.64495C19.4612 7.14079 19.3145 6.89329 19.1954 6.82912C19.0762 6.76495 18.7829 6.79245 18.3704 7.07662L16.2162 8.57995V13.42Z" fill="#E53935">
  <animate attributeName="opacity" values="1;0.6;1" dur="2s" repeatCount="indefinite" />
</path>
<path d="M10.542 10.771C9.40533 10.771 8.47949 9.84516 8.47949 8.7085C8.47949 7.57183 9.40533 6.646 10.542 6.646C11.6787 6.646 12.6045 7.57183 12.6045 8.7085C12.6045 9.84516 11.6787 10.771 10.542 10.771ZM10.542 8.021C10.1662 8.021 9.85449 8.33266 9.85449 8.7085C9.85449 9.08433 10.1662 9.396 10.542 9.396C10.9178 9.396 11.2295 9.08433 11.2295 8.7085C11.2295 8.33266 10.9178 8.021 10.542 8.021Z" fill="#E53935">
  <animateTransform attributeName="transform" type="rotate" values="0 10.5 8.7; 360 10.5 8.7" dur="5s" repeatCount="indefinite" />
</path>
</svg>
